<?xml version="1.0" standalone="no"?><!DOCTYPE svg PUBLIC "-//W3C//DTD SVG 1.1//EN" "http://www.w3.org/Graphics/SVG/1.1/DTD/svg11.dtd"><svg t="1679406158025" class="icon" viewBox="0 0 1024 1024" version="1.1" xmlns="http://www.w3.org/2000/svg" p-id="17884" xmlns:xlink="http://www.w3.org/1999/xlink" width="32" height="32"><path d="M898.2 235.2l-0.5-8.3c-0.7-11.1-2.4-21.9-4-32.4-0.7-4.2-1.3-8.5-1.9-12.8l-3.1-22.2-22.3 4.9c-1.8 0.4-3.1 0.7-4.1 0.9-1.7 0.3-2.9 0.6-4.1 0.9l-0.4 0.1c-34.6 9.7-68.5 14.5-100.8 14.5-69.4 0-134.9-22.8-194.7-67.8-9.6-7.2-21-14.9-35.4-14.9-12.1 0-22.2 5.2-33.7 13-62.8 42.8-123.7 63.7-186.3 63.7-7.7 0-15.6-0.3-23.5-1-25.2-2-50.2-6.2-76.7-10.7-12.4-2.1-25.2-4.2-38.1-6.2l-17.9-2.7-5.2 16.7-0.1 0.4c-0.9 2.4-2.7 7.4-3.4 13.2-1.7 14.7-3.5 29.4-5.3 44.1-4.8 39.5-9.8 80.4-13.3 121-7.4 86.3-0.1 162.3 22.5 232.3 24.8 77.1 62.2 142.3 111 193.8 50.5 53.3 114.9 93.7 191.4 119.9 14.2 4.9 27.9 11.3 42.5 18.1 8.2 3.9 16.7 7.8 25.5 11.6 4.1 1.7 8.8 2.6 13.6 2.6 4.1 0 10.4-0.7 16.3-3.7 8.1-4.1 15.9-8.5 23.5-12.7 12.3-6.9 23.9-13.4 35.8-18.3 62.2-25.5 108.9-54.6 146.8-91.7C827.1 728 872.2 632.9 894 502.4c15.1-89.1 9.6-179.7 4.2-267.2z m-602 408.1c24.5-40.4 36.7-98.1 36.7-173.2V289.4c113.7 0.8 229.5-4.8 347.2-16.9l26.2 52.1-128 9.1v34.9h120.4v47.8H578.3v28.8h106v147.3h-54.9V493H473.1v99.5h-54.9V445.2h102.2v-28.8H406v-47.8h114.5V337c-45.8 2.5-89.1 4.4-130.1 5.7v130c0 95.7-15.6 167.1-46.9 214.2-11.8-12.4-27.6-27-47.3-43.6z m384.3 42.3c-42.8-24.3-85.6-46.9-128.4-67.7-27 31-74.6 54.2-142.8 69.4-9.9-19.5-19.4-36-28.7-49.5 52.9-11.1 90.1-24.8 111.4-41.1 21.3-16.2 32.8-45.6 34.3-88.1h59.1c-0.7 26-4.4 48.7-11.2 68.2 40.3 15.4 87.1 34.7 140.4 58l-34.1 50.8z" p-id="17885" fill="#1296db"></path></svg>