<?xml version="1.0" standalone="no"?><!DOCTYPE svg PUBLIC "-//W3C//DTD SVG 1.1//EN" "http://www.w3.org/Graphics/SVG/1.1/DTD/svg11.dtd"><svg t="1679406003487" class="icon" viewBox="0 0 1194 1024" version="1.1" xmlns="http://www.w3.org/2000/svg" p-id="8476" xmlns:xlink="http://www.w3.org/1999/xlink" width="37.3125" height="32"><path d="M730.154667 639.488a168.533333 168.533333 0 0 0-67.541334-13.653333h-2.858666l-131.2 9.898666 351.146666-204.8a328.192 328.192 0 0 1 113.152-34.133333c18.346667 0 36.693333 2.56 54.4 7.509333l-16.597333 58.24a140.373333 140.373333 0 0 0-37.888-5.205333c-29.781333 4.266667-58.666667 13.525333-85.333333 27.392l-162.986667 95.061333c3.285333 1.237333 6.613333 2.56 9.941333 3.968l-24.234666 55.722667z m32.128 324.778667l49.92-93.909334a166.144 166.144 0 0 0-5.973334-165.376l-1.237333-2.048c-3.413333-5.546667-7.253333-10.794667-11.52-15.744l-0.64-0.810666a72.106667 72.106667 0 0 0-3.584-4.096l-26.026667-27.136 354.517334-216.533334 16.853333 16.512a201.642667 201.642667 0 0 1-12.928 299.264l-1.92 1.578667-2.133333 1.28-355.328 207.018667z m95.914666-290.474667a226.688 226.688 0 0 1 32.256 145.749333l194.304-113.194666a141.141333 141.141333 0 0 0 22.528-190.421334l-251.648 153.728 1.536 2.517334 1.024 1.621333zM500.48 242.432a167.765333 167.765333 0 0 0-67.541333-13.653333h-2.773334l-131.541333 10.112L650.069333 34.133333A328.192 328.192 0 0 1 763.221333 0c18.389333 0 36.693333 2.517333 54.4 7.509333l-16.554666 58.24a139.136 139.136 0 0 0-37.888-5.205333 267.52 267.52 0 0 0-85.376 27.392l-162.858667 95.018667c3.328 1.28 6.656 2.602667 9.941333 4.010666l-24.32 55.466667z m32.213333 324.778667l49.92-93.909334a166.101333 166.101333 0 0 0-6.101333-165.546666l-1.024-1.621334a125.184 125.184 0 0 0-11.648-16l-0.64-0.810666a60.842667 60.842667 0 0 0-3.626667-4.096l-26.026666-27.178667L888.106667 41.557333l16.896 16.512a201.642667 201.642667 0 0 1-12.928 299.264l-1.92 1.578667-357.376 208.298667zM628.48 276.48c26.965333 43.605333 38.4 95.061333 32.341333 145.92l194.346667-113.194667a141.141333 141.141333 0 0 0 22.485333-190.421333l-251.648 153.728 1.664 2.901333 0.810667 1.066667z" fill="#1296db" p-id="8477"></path><path d="M277.333333 789.333333m-149.333333 0a149.333333 149.333333 0 1 0 298.666667 0 149.333333 149.333333 0 1 0-298.666667 0Z" fill="#1296db" p-id="8478"></path><path d="M362.666667 629.333333a181.333333 181.333333 0 1 0 0-362.666666 181.333333 181.333333 0 0 0 0 362.666666z m0-64a117.333333 117.333333 0 1 1 0-234.666666 117.333333 117.333333 0 0 1 0 234.666666z" fill="#1296db" p-id="8479"></path><path d="M192 1013.333333a181.333333 181.333333 0 1 0 0-362.666666 181.333333 181.333333 0 0 0 0 362.666666z m0-64a117.333333 117.333333 0 1 1 0-234.666666 117.333333 117.333333 0 0 1 0 234.666666zM576 1013.333333a181.333333 181.333333 0 1 0 0-362.666666 181.333333 181.333333 0 0 0 0 362.666666z m0-64a117.333333 117.333333 0 1 1 0-234.666666 117.333333 117.333333 0 0 1 0 234.666666z" fill="#1296db" p-id="8480"></path></svg>