<?xml version="1.0" standalone="no"?><!DOCTYPE svg PUBLIC "-//W3C//DTD SVG 1.1//EN" "http://www.w3.org/Graphics/SVG/1.1/DTD/svg11.dtd"><svg t="1679405982296" class="icon" viewBox="0 0 1028 1024" version="1.1" xmlns="http://www.w3.org/2000/svg" p-id="7437" xmlns:xlink="http://www.w3.org/1999/xlink" width="32.125" height="32"><path d="M357.640828 353.103448m70.620689 0l529.655173 0q70.62069 0 70.620689 70.62069l0 529.655172q0 70.62069-70.620689 70.62069l-529.655173 0q-70.62069 0-70.620689-70.62069l0-529.655172q0-70.62069 70.620689-70.62069Z" fill="#1296db" opacity=".2" p-id="7438"></path><path d="M463.571862 459.034483m17.655172 0l0 0q17.655172 0 17.655173 17.655172l0 459.034483q0 17.655172-17.655173 17.655172l0 0q-17.655172 0-17.655172-17.655172l0-459.034483q0-17.655172 17.655172-17.655172Z" fill="#1296db" p-id="7439"></path><path d="M22.192552 741.517241a17.655172 17.655172 0 0 1-17.655173-17.655172v-211.862069h35.310345v211.862069a17.655172 17.655172 0 0 1-17.655172 17.655172z m17.655172-370.75862h-35.310345v-132.413793a17.655172 17.655172 0 0 1 17.655173-17.655173 17.655172 17.655172 0 0 1 17.655172 17.655173v132.413793z" fill="#1296db" p-id="7440"></path><path d="M957.91669 512h-35.310345v-273.655172a17.655172 17.655172 0 0 1 17.655172-17.655173 17.655172 17.655172 0 0 1 17.655173 17.655173V512z" fill="#1296db" p-id="7441"></path><path d="M22.402993 704.444444m16.00102 7.461399l448.028567 208.919151q16.00102 7.461398 8.539622 23.462419l0 0q-7.461398 16.00102-23.462419 8.539622l-448.028566-208.919152q-16.00102-7.461398-8.539622-23.462418l0 0q7.461398-16.00102 23.462418-8.539622Z" fill="#1296db" p-id="7442"></path><path d="M22.404214 230.397556m16.00102 7.461398l448.028567 208.919152q16.00102 7.461398 8.539622 23.462419l0 0q-7.461398 16.00102-23.462418 8.539622l-448.028567-208.919152q-16.00102-7.461398-8.539622-23.462419l0 0q7.461398-16.00102 23.462418-8.539622Z" fill="#1296db" p-id="7443"></path><path d="M496.144746 107.452939m16.00102 7.461398l192.012243 89.536779q16.00102 7.461398 8.539622 23.462419l0 0q-7.461398 16.00102-23.462419 8.539622l-192.012242-89.536779q-16.00102-7.461398-8.539622-23.462419l0 0q7.461398-16.00102 23.462418-8.539622Z" fill="#1296db" p-id="7444"></path><path d="M194.668643 395.160452m16.00102 7.461398l96.006121 44.76839q16.00102 7.461398 8.539622 23.462418l0 0q-7.461398 16.00102-23.462418 8.539622l-96.006122-44.76839q-16.00102-7.461398-8.539622-23.462418l0 0q7.461398-16.00102 23.462419-8.539622Z" fill="#1296db" p-id="7445"></path><path d="M476.285403 0.000923m16.00102 7.461398l454.428975 211.903711q16.00102 7.461398 8.539622 23.462419l0 0q-7.461398 16.00102-23.462419 8.539622l-454.428975-211.903711q-16.00102-7.461398-8.539622-23.462419l0 0q7.461398-16.00102 23.462419-8.539622Z" fill="#1296db" p-id="7446"></path><path d="M483.222069 955.144828a17.655172 17.655172 0 0 1-15.995586-10.20469 17.513931 17.513931 0 0 1-0.582621-13.488552 17.513931 17.513931 0 0 1 9.110069-9.957517l122.597517-57.167448 1.924414 4.996413V882.758621h7.20331l5.296552 13.753379-122.050207 56.902621a17.44331 17.44331 0 0 1-7.503448 1.730207z" fill="#1296db" p-id="7447"></path><path d="M957.927274 261.518179m-16.00102 7.461398l-451.228771 210.411431q-16.00102 7.461398-23.462418-8.539622l0 0q-7.461398-16.00102 8.539622-23.462418l451.22877-210.411431q16.00102-7.461398 23.462419 8.539622l0 0q7.461398 16.00102-8.539622 23.462418Z" fill="#1296db" p-id="7448"></path><path d="M502.422275 31.996378m-16.001021 7.461399l-455.501043 212.403624q-16.00102 7.461398-23.462418-8.539622l0 0q-7.461398-16.00102 8.539622-23.462418l455.501043-212.403625q16.00102-7.461398 23.462418 8.539622l0 0q7.461398 16.00102-8.539622 23.462419Z" fill="#1296db" p-id="7449"></path><path d="M4.537379 406.068966m17.655173 0l0 0q17.655172 0 17.655172 17.655172l0 35.310345q0 17.655172-17.655172 17.655172l0 0q-17.655172 0-17.655173-17.655172l0-35.310345q0-17.655172 17.655173-17.655172Z" fill="#1296db" p-id="7450"></path><path d="M22.192552 370.758621m-17.655173 0a17.655172 17.655172 0 1 0 35.310345 0 17.655172 17.655172 0 1 0-35.310345 0Z" fill="#1296db" p-id="7451"></path><path d="M22.192552 512m-17.655173 0a17.655172 17.655172 0 1 0 35.310345 0 17.655172 17.655172 0 1 0-35.310345 0Z" fill="#1296db" p-id="7452"></path><path d="M759.419586 832.353103a141.400276 141.400276 0 0 1-141.241379-141.241379 141.400276 141.400276 0 0 1 141.241379-141.241379 141.400276 141.400276 0 0 1 141.24138 141.241379 141.894621 141.894621 0 0 1-4.484414 35.433931 79.995586 79.995586 0 0 0-30.896552-39.759448 105.613241 105.613241 0 0 0-105.931034-101.623173 106.054621 106.054621 0 0 0-105.931035 105.931035 105.577931 105.577931 0 0 0 101.570207 105.825103 80.154483 80.154483 0 0 0 39.777103 30.931862 141.78869 141.78869 0 0 1-35.345655 4.502069z" fill="#1296db" p-id="7453"></path><path d="M845.576828 660.974345l37.44662 37.446621 37.464276-37.446621a17.655172 17.655172 0 0 1 24.964414 0 17.655172 17.655172 0 0 1 0 24.964414l-49.946483 49.946482a17.655172 17.655172 0 0 1-24.964414 0l-49.928827-49.946482a17.655172 17.655172 0 0 1 0-24.964414 17.655172 17.655172 0 0 1 24.964414 0z" fill="#1296db" p-id="7454"></path><path d="M940.314483 512m-17.655173 0a17.655172 17.655172 0 1 0 35.310345 0 17.655172 17.655172 0 1 0-35.310345 0Z" fill="#1296db" p-id="7455"></path><path d="M604.866207 880.816552m-17.655173 0a17.655172 17.655172 0 1 0 35.310345 0 17.655172 17.655172 0 1 0-35.310345 0Z" fill="#1296db" p-id="7456"></path></svg>