<?xml version="1.0" standalone="no"?><!DOCTYPE svg PUBLIC "-//W3C//DTD SVG 1.1//EN" "http://www.w3.org/Graphics/SVG/1.1/DTD/svg11.dtd"><svg t="1679406048747" class="icon" viewBox="0 0 1055 1024" version="1.1" xmlns="http://www.w3.org/2000/svg" p-id="9463" xmlns:xlink="http://www.w3.org/1999/xlink" width="32.96875" height="32"><path d="M1036.598303 894.758788v67.273697H531.207758v-67.273697h505.359515z m0 67.273697H531.207758v-67.273697h505.359515v67.273697z m0-244.67394v67.273697H531.207758v-67.273697h505.359515z m0 67.273697H531.207758v-67.273697h505.359515v67.273697z m0-244.673939v67.242667H531.207758V539.927273h505.359515z m0 67.242667H531.207758V539.927273h505.359515v67.242666zM526.956606 71.431758V138.705455H21.597091V71.431758h505.359515z m0 67.273697H21.597091V71.431758h505.359515V138.705455z m5.057939 100.600242v67.242667H26.59297V239.305697h505.421575z m0 67.242667H26.59297V239.305697h505.390545v67.242667h0.03103z m-5.833697 110.529939v67.242667H20.821333V417.047273h505.359515z m0 67.242667H20.821333V417.047273h505.359515v67.242666zM581.569939 13.591273h67.708122v498.967272h-67.708122V13.591273z m67.708122 0v498.967272h-67.708122V13.591273h67.708122z m111.988363 0h67.708121v498.967272h-67.708121V13.591273z m67.708121 0v498.967272h-67.708121V13.591273h67.708121z m111.988364 0h67.739152v498.967272h-67.739152V13.591273z m67.739152 0v498.967272h-67.739152V13.591273h67.739152z m-527.887516 997.934545h-67.708121v-498.967273h67.708121v498.967273z m-67.708121 0v-498.967273h67.708121v498.967273h-67.708121z m-101.841454 6.609455H243.587879v-498.967273h67.739151v498.967273h-0.06206z m-67.708122 0v-498.967273h67.739152v498.967273H243.556848z m-122.135272-6.640485H53.713455V512.558545h67.708121v498.967273z m-67.708121 0V512.558545h67.708121v498.967273H53.713455z" fill="#1296db" p-id="9464"></path></svg>