<?xml version="1.0" standalone="no"?><!DOCTYPE svg PUBLIC "-//W3C//DTD SVG 1.1//EN" "http://www.w3.org/Graphics/SVG/1.1/DTD/svg11.dtd"><svg t="1679405249805" class="icon" viewBox="0 0 1024 1024" version="1.1" xmlns="http://www.w3.org/2000/svg" p-id="4072" width="32" height="32" xmlns:xlink="http://www.w3.org/1999/xlink"><path d="M189.53 444.765c-11.504-16.77-62.432-33.725-119.754-57.74 0 0-89.886 299.276 195.162 479.745 7.682-35.862 31.031-133.271 31.031-133.271S162.401 628.344 189.53 444.765z" fill="#5CB0E3" p-id="4073"></path><path d="M185.102 111.623C94.457 111.623 21 185.204 21 275.973 21 366.74 94.457 440.32 185.102 440.32c90.613 0 164.102-73.581 164.102-164.348-0.002-90.768-73.49-164.349-164.102-164.349zM963.86 467.031c-35.118 12.884-131.935 45.802-131.935 45.802s-16.319 168.612-189.404 244.806c-8.033 18.679 5.652 70.508 16.797 131.473 0-0.002 307.48-85.95 304.542-422.081z" fill="#5CB0E3" p-id="4074"></path><path d="M649.146 765.146c-49.069-76.306-150.615-98.323-226.812-49.177-76.197 49.146-98.186 150.862-49.101 227.168 49.054 76.319 150.615 98.339 226.812 49.179 76.183-49.147 98.17-150.847 49.101-227.17zM333.95 57.144c25.601 23.673 93.97 90.014 93.97 90.014s150.892-58.486 287.94 52.712c19.316-1.298 57.911-34.797 105.398-70.111 0.002 0-201.245-218.673-487.308-72.615z" fill="#5CB0E3" p-id="4075"></path><path d="M928.402 142.188c-73.364-43.526-168.063-19.246-211.514 54.226-43.479 73.473-19.23 168.328 54.134 211.854 73.362 43.542 168.064 19.264 211.513-54.209 43.48-73.473 19.231-168.329-54.133-211.871zM601.995 435.892c-0.309-11.504-13.315-17.775-13.315-17.775s-122.449-41.157-172.958-57.741c-50.51-16.599-53.219 17.761-53.219 17.761V657.98c4.167 19.883 39.902 13.334 39.902 13.334s181.909-42.938 186.274-44.427c15.16-5.312 13.315-17.76 13.315-17.76s0.297-161.746 0.001-173.235z m-8.873 168.793c-0.263 12.559-17.742 13.331-17.742 13.331s-90.939 12.11-97.566 13.317c-55.712 13.069-57.664-8.888-57.664-8.888V409.228c12.945-17.279 44.347-4.442 44.347-4.442s112.911 21.291 115.327 22.22c11.054 4.615 13.3 13.316 13.3 13.316s0.247 151.806-0.002 164.363zM613.082 409.228c-6.133 0-11.087 4.972-11.087 11.118 0 6.132 4.954 11.104 11.087 11.104 6.116 0 11.088-4.972 11.088-11.104 0-6.147-4.972-11.118-11.088-11.118zM606.425 382.58c-0.634 6.596 0 13.332 0 13.332s27.81-0.573 31.047 31.092c4.164 0.821 13.301 0 13.301 0s3.607-37.224-44.348-44.424z" fill="#5CB0E3" p-id="4076"></path><path d="M606.425 355.931c0.277 9.787 0 13.317 0 13.317s51.159 1.704 57.664 57.756c7.864-1.021 13.3 0 13.3 0s-0.047-67.975-70.964-71.073z" fill="#5CB0E3" p-id="4077"></path></svg>